<mxfile host="app.diagrams.net" modified="2021-04-26T18:40:34.314Z" agent="5.0 (Windows NT 10.0; Win64; x64) AppleWebKit/537.36 (KHTML, like Gecko) Chrome/90.0.4430.85 Safari/537.36" etag="GkOZ3CX1O6iYL-iAvHJ0" version="14.6.6" type="github">
  <diagram id="Fs4MIxVmF5xMM4W98wgM" name="Page-1">
    <mxGraphModel dx="2031" dy="1007" grid="1" gridSize="10" guides="1" tooltips="1" connect="1" arrows="1" fold="1" page="1" pageScale="1" pageWidth="1600" pageHeight="900" math="0" shadow="0">
      <root>
        <mxCell id="0" />
        <mxCell id="1" parent="0" />
        <mxCell id="2cDkV1y1r-W87eGvVOOi-1" value="&lt;font face=&quot;Verdana&quot; style=&quot;font-size: 32px&quot;&gt;webGPU Computing&lt;/font&gt;" style="text;html=1;strokeColor=none;fillColor=none;align=center;verticalAlign=middle;whiteSpace=wrap;rounded=0;" parent="1" vertex="1">
          <mxGeometry x="565" y="50" width="440" height="20" as="geometry" />
        </mxCell>
        <mxCell id="2cDkV1y1r-W87eGvVOOi-2" value="" style="shape=table;html=1;whiteSpace=wrap;startSize=0;container=1;collapsible=0;childLayout=tableLayout;" parent="1" vertex="1">
          <mxGeometry x="640" y="180" width="100" height="40" as="geometry" />
        </mxCell>
        <mxCell id="2cDkV1y1r-W87eGvVOOi-3" value="" style="shape=partialRectangle;html=1;whiteSpace=wrap;collapsible=0;dropTarget=0;pointerEvents=0;fillColor=none;top=0;left=0;bottom=0;right=0;points=[[0,0.5],[1,0.5]];portConstraint=eastwest;" parent="2cDkV1y1r-W87eGvVOOi-2" vertex="1">
          <mxGeometry width="100" height="40" as="geometry" />
        </mxCell>
        <mxCell id="2cDkV1y1r-W87eGvVOOi-4" value="" style="shape=partialRectangle;html=1;whiteSpace=wrap;connectable=0;fillColor=none;top=0;left=0;bottom=0;right=0;overflow=hidden;" parent="2cDkV1y1r-W87eGvVOOi-3" vertex="1">
          <mxGeometry width="20" height="40" as="geometry" />
        </mxCell>
        <mxCell id="2cDkV1y1r-W87eGvVOOi-5" value="" style="shape=partialRectangle;html=1;whiteSpace=wrap;connectable=0;fillColor=none;top=0;left=0;bottom=0;right=0;overflow=hidden;" parent="2cDkV1y1r-W87eGvVOOi-3" vertex="1">
          <mxGeometry x="20" width="20" height="40" as="geometry" />
        </mxCell>
        <mxCell id="2cDkV1y1r-W87eGvVOOi-6" value="" style="shape=partialRectangle;html=1;whiteSpace=wrap;connectable=0;fillColor=none;top=0;left=0;bottom=0;right=0;overflow=hidden;" parent="2cDkV1y1r-W87eGvVOOi-3" vertex="1">
          <mxGeometry x="40" width="20" height="40" as="geometry" />
        </mxCell>
        <mxCell id="2cDkV1y1r-W87eGvVOOi-15" style="shape=partialRectangle;html=1;whiteSpace=wrap;connectable=0;fillColor=none;top=0;left=0;bottom=0;right=0;overflow=hidden;" parent="2cDkV1y1r-W87eGvVOOi-3" vertex="1">
          <mxGeometry x="60" width="20" height="40" as="geometry" />
        </mxCell>
        <mxCell id="2cDkV1y1r-W87eGvVOOi-16" style="shape=partialRectangle;html=1;whiteSpace=wrap;connectable=0;fillColor=none;top=0;left=0;bottom=0;right=0;overflow=hidden;" parent="2cDkV1y1r-W87eGvVOOi-3" vertex="1">
          <mxGeometry x="80" width="20" height="40" as="geometry" />
        </mxCell>
        <mxCell id="2cDkV1y1r-W87eGvVOOi-17" value="" style="shape=table;html=1;whiteSpace=wrap;startSize=0;container=1;collapsible=0;childLayout=tableLayout;" parent="1" vertex="1">
          <mxGeometry x="790" y="180" width="140" height="40" as="geometry" />
        </mxCell>
        <mxCell id="2cDkV1y1r-W87eGvVOOi-18" value="" style="shape=partialRectangle;html=1;whiteSpace=wrap;collapsible=0;dropTarget=0;pointerEvents=0;fillColor=none;top=0;left=0;bottom=0;right=0;points=[[0,0.5],[1,0.5]];portConstraint=eastwest;" parent="2cDkV1y1r-W87eGvVOOi-17" vertex="1">
          <mxGeometry width="140" height="40" as="geometry" />
        </mxCell>
        <mxCell id="2cDkV1y1r-W87eGvVOOi-19" value="" style="shape=partialRectangle;html=1;whiteSpace=wrap;connectable=0;fillColor=none;top=0;left=0;bottom=0;right=0;overflow=hidden;" parent="2cDkV1y1r-W87eGvVOOi-18" vertex="1">
          <mxGeometry width="20" height="40" as="geometry" />
        </mxCell>
        <mxCell id="2cDkV1y1r-W87eGvVOOi-20" value="" style="shape=partialRectangle;html=1;whiteSpace=wrap;connectable=0;fillColor=none;top=0;left=0;bottom=0;right=0;overflow=hidden;" parent="2cDkV1y1r-W87eGvVOOi-18" vertex="1">
          <mxGeometry x="20" width="20" height="40" as="geometry" />
        </mxCell>
        <mxCell id="2cDkV1y1r-W87eGvVOOi-21" value="" style="shape=partialRectangle;html=1;whiteSpace=wrap;connectable=0;fillColor=none;top=0;left=0;bottom=0;right=0;overflow=hidden;" parent="2cDkV1y1r-W87eGvVOOi-18" vertex="1">
          <mxGeometry x="40" width="20" height="40" as="geometry" />
        </mxCell>
        <mxCell id="2cDkV1y1r-W87eGvVOOi-22" style="shape=partialRectangle;html=1;whiteSpace=wrap;connectable=0;fillColor=none;top=0;left=0;bottom=0;right=0;overflow=hidden;" parent="2cDkV1y1r-W87eGvVOOi-18" vertex="1">
          <mxGeometry x="60" width="20" height="40" as="geometry" />
        </mxCell>
        <mxCell id="2cDkV1y1r-W87eGvVOOi-23" style="shape=partialRectangle;html=1;whiteSpace=wrap;connectable=0;fillColor=none;top=0;left=0;bottom=0;right=0;overflow=hidden;" parent="2cDkV1y1r-W87eGvVOOi-18" vertex="1">
          <mxGeometry x="80" width="20" height="40" as="geometry" />
        </mxCell>
        <mxCell id="2cDkV1y1r-W87eGvVOOi-25" style="shape=partialRectangle;html=1;whiteSpace=wrap;connectable=0;fillColor=none;top=0;left=0;bottom=0;right=0;overflow=hidden;" parent="2cDkV1y1r-W87eGvVOOi-18" vertex="1">
          <mxGeometry x="100" width="20" height="40" as="geometry" />
        </mxCell>
        <mxCell id="2cDkV1y1r-W87eGvVOOi-24" style="shape=partialRectangle;html=1;whiteSpace=wrap;connectable=0;fillColor=none;top=0;left=0;bottom=0;right=0;overflow=hidden;" parent="2cDkV1y1r-W87eGvVOOi-18" vertex="1">
          <mxGeometry x="120" width="20" height="40" as="geometry" />
        </mxCell>
        <mxCell id="2cDkV1y1r-W87eGvVOOi-27" value="" style="shape=table;html=1;whiteSpace=wrap;startSize=0;container=1;collapsible=0;childLayout=tableLayout;" parent="1" vertex="1">
          <mxGeometry x="975" y="180" width="60" height="40" as="geometry" />
        </mxCell>
        <mxCell id="2cDkV1y1r-W87eGvVOOi-28" value="" style="shape=partialRectangle;html=1;whiteSpace=wrap;collapsible=0;dropTarget=0;pointerEvents=0;fillColor=none;top=0;left=0;bottom=0;right=0;points=[[0,0.5],[1,0.5]];portConstraint=eastwest;" parent="2cDkV1y1r-W87eGvVOOi-27" vertex="1">
          <mxGeometry width="60" height="40" as="geometry" />
        </mxCell>
        <mxCell id="2cDkV1y1r-W87eGvVOOi-29" value="" style="shape=partialRectangle;html=1;whiteSpace=wrap;connectable=0;fillColor=none;top=0;left=0;bottom=0;right=0;overflow=hidden;" parent="2cDkV1y1r-W87eGvVOOi-28" vertex="1">
          <mxGeometry width="20" height="40" as="geometry" />
        </mxCell>
        <mxCell id="2cDkV1y1r-W87eGvVOOi-30" value="" style="shape=partialRectangle;html=1;whiteSpace=wrap;connectable=0;fillColor=none;top=0;left=0;bottom=0;right=0;overflow=hidden;" parent="2cDkV1y1r-W87eGvVOOi-28" vertex="1">
          <mxGeometry x="20" width="20" height="40" as="geometry" />
        </mxCell>
        <mxCell id="2cDkV1y1r-W87eGvVOOi-31" value="" style="shape=partialRectangle;html=1;whiteSpace=wrap;connectable=0;fillColor=none;top=0;left=0;bottom=0;right=0;overflow=hidden;" parent="2cDkV1y1r-W87eGvVOOi-28" vertex="1">
          <mxGeometry x="40" width="20" height="40" as="geometry" />
        </mxCell>
        <mxCell id="2cDkV1y1r-W87eGvVOOi-36" value="" style="shape=table;html=1;whiteSpace=wrap;startSize=0;container=1;collapsible=0;childLayout=tableLayout;" parent="1" vertex="1">
          <mxGeometry x="1070" y="180" width="220" height="40" as="geometry" />
        </mxCell>
        <mxCell id="2cDkV1y1r-W87eGvVOOi-37" value="" style="shape=partialRectangle;html=1;whiteSpace=wrap;collapsible=0;dropTarget=0;pointerEvents=0;fillColor=none;top=0;left=0;bottom=0;right=0;points=[[0,0.5],[1,0.5]];portConstraint=eastwest;" parent="2cDkV1y1r-W87eGvVOOi-36" vertex="1">
          <mxGeometry width="220" height="40" as="geometry" />
        </mxCell>
        <mxCell id="2cDkV1y1r-W87eGvVOOi-38" value="" style="shape=partialRectangle;html=1;whiteSpace=wrap;connectable=0;fillColor=none;top=0;left=0;bottom=0;right=0;overflow=hidden;" parent="2cDkV1y1r-W87eGvVOOi-37" vertex="1">
          <mxGeometry width="20" height="40" as="geometry" />
        </mxCell>
        <mxCell id="2cDkV1y1r-W87eGvVOOi-39" value="" style="shape=partialRectangle;html=1;whiteSpace=wrap;connectable=0;fillColor=none;top=0;left=0;bottom=0;right=0;overflow=hidden;" parent="2cDkV1y1r-W87eGvVOOi-37" vertex="1">
          <mxGeometry x="20" width="20" height="40" as="geometry" />
        </mxCell>
        <mxCell id="2cDkV1y1r-W87eGvVOOi-40" value="" style="shape=partialRectangle;html=1;whiteSpace=wrap;connectable=0;fillColor=none;top=0;left=0;bottom=0;right=0;overflow=hidden;" parent="2cDkV1y1r-W87eGvVOOi-37" vertex="1">
          <mxGeometry x="40" width="20" height="40" as="geometry" />
        </mxCell>
        <mxCell id="2cDkV1y1r-W87eGvVOOi-41" style="shape=partialRectangle;html=1;whiteSpace=wrap;connectable=0;fillColor=none;top=0;left=0;bottom=0;right=0;overflow=hidden;" parent="2cDkV1y1r-W87eGvVOOi-37" vertex="1">
          <mxGeometry x="60" width="20" height="40" as="geometry" />
        </mxCell>
        <mxCell id="2cDkV1y1r-W87eGvVOOi-42" style="shape=partialRectangle;html=1;whiteSpace=wrap;connectable=0;fillColor=none;top=0;left=0;bottom=0;right=0;overflow=hidden;" parent="2cDkV1y1r-W87eGvVOOi-37" vertex="1">
          <mxGeometry x="80" width="20" height="40" as="geometry" />
        </mxCell>
        <mxCell id="2cDkV1y1r-W87eGvVOOi-43" style="shape=partialRectangle;html=1;whiteSpace=wrap;connectable=0;fillColor=none;top=0;left=0;bottom=0;right=0;overflow=hidden;" parent="2cDkV1y1r-W87eGvVOOi-37" vertex="1">
          <mxGeometry x="100" width="20" height="40" as="geometry" />
        </mxCell>
        <mxCell id="2cDkV1y1r-W87eGvVOOi-44" style="shape=partialRectangle;html=1;whiteSpace=wrap;connectable=0;fillColor=none;top=0;left=0;bottom=0;right=0;overflow=hidden;" parent="2cDkV1y1r-W87eGvVOOi-37" vertex="1">
          <mxGeometry x="120" width="20" height="40" as="geometry" />
        </mxCell>
        <mxCell id="2cDkV1y1r-W87eGvVOOi-45" style="shape=partialRectangle;html=1;whiteSpace=wrap;connectable=0;fillColor=none;top=0;left=0;bottom=0;right=0;overflow=hidden;" parent="2cDkV1y1r-W87eGvVOOi-37" vertex="1">
          <mxGeometry x="140" width="20" height="40" as="geometry" />
        </mxCell>
        <mxCell id="2cDkV1y1r-W87eGvVOOi-46" style="shape=partialRectangle;html=1;whiteSpace=wrap;connectable=0;fillColor=none;top=0;left=0;bottom=0;right=0;overflow=hidden;" parent="2cDkV1y1r-W87eGvVOOi-37" vertex="1">
          <mxGeometry x="160" width="20" height="40" as="geometry" />
        </mxCell>
        <mxCell id="2cDkV1y1r-W87eGvVOOi-47" style="shape=partialRectangle;html=1;whiteSpace=wrap;connectable=0;fillColor=none;top=0;left=0;bottom=0;right=0;overflow=hidden;" parent="2cDkV1y1r-W87eGvVOOi-37" vertex="1">
          <mxGeometry x="180" width="20" height="40" as="geometry" />
        </mxCell>
        <mxCell id="2cDkV1y1r-W87eGvVOOi-48" style="shape=partialRectangle;html=1;whiteSpace=wrap;connectable=0;fillColor=none;top=0;left=0;bottom=0;right=0;overflow=hidden;" parent="2cDkV1y1r-W87eGvVOOi-37" vertex="1">
          <mxGeometry x="200" width="20" height="40" as="geometry" />
        </mxCell>
        <mxCell id="2cDkV1y1r-W87eGvVOOi-49" value="Buffers" style="text;html=1;strokeColor=none;fillColor=none;align=center;verticalAlign=middle;whiteSpace=wrap;rounded=0;fontSize=35;fontFamily=Verdana;fontColor=#CC0000;" parent="1" vertex="1">
          <mxGeometry x="365" y="180" width="40" height="20" as="geometry" />
        </mxCell>
        <mxCell id="2cDkV1y1r-W87eGvVOOi-51" value="&lt;font style=&quot;font-size: 35px&quot;&gt;Binding Groups&lt;br&gt;&amp;amp; Layouts&lt;/font&gt;" style="text;html=1;strokeColor=none;fillColor=none;align=center;verticalAlign=middle;whiteSpace=wrap;rounded=0;fontSize=35;fontFamily=Verdana;fontColor=#CC0000;" parent="1" vertex="1">
          <mxGeometry x="220" y="300" width="330" height="20" as="geometry" />
        </mxCell>
        <mxCell id="2cDkV1y1r-W87eGvVOOi-52" value="" style="rounded=1;whiteSpace=wrap;html=1;fontFamily=Verdana;fontSize=35;fontColor=#CC0000;glass=0;" parent="1" vertex="1">
          <mxGeometry x="590" y="270" width="730" height="110" as="geometry" />
        </mxCell>
        <mxCell id="2cDkV1y1r-W87eGvVOOi-53" value="" style="ellipse;whiteSpace=wrap;html=1;rounded=1;glass=0;fontFamily=Verdana;fontSize=35;fontColor=#CC0000;" parent="1" vertex="1">
          <mxGeometry x="660" y="300" width="50" height="46" as="geometry" />
        </mxCell>
        <mxCell id="2cDkV1y1r-W87eGvVOOi-54" value="" style="ellipse;whiteSpace=wrap;html=1;rounded=1;glass=0;fontFamily=Verdana;fontSize=35;fontColor=#CC0000;" parent="1" vertex="1">
          <mxGeometry x="840" y="302" width="50" height="46" as="geometry" />
        </mxCell>
        <mxCell id="2cDkV1y1r-W87eGvVOOi-55" value="" style="ellipse;whiteSpace=wrap;html=1;rounded=1;glass=0;fontFamily=Verdana;fontSize=35;fontColor=#CC0000;" parent="1" vertex="1">
          <mxGeometry x="985" y="300" width="50" height="46" as="geometry" />
        </mxCell>
        <mxCell id="2cDkV1y1r-W87eGvVOOi-56" value="" style="ellipse;whiteSpace=wrap;html=1;rounded=1;glass=0;fontFamily=Verdana;fontSize=35;fontColor=#CC0000;" parent="1" vertex="1">
          <mxGeometry x="1155" y="302" width="50" height="46" as="geometry" />
        </mxCell>
        <mxCell id="2cDkV1y1r-W87eGvVOOi-57" value="" style="endArrow=classic;startArrow=classic;html=1;fontFamily=Verdana;fontSize=35;fontColor=#CC0000;entryX=0.07;entryY=0.982;entryDx=0;entryDy=0;entryPerimeter=0;exitX=0.5;exitY=0;exitDx=0;exitDy=0;" parent="1" source="2cDkV1y1r-W87eGvVOOi-53" target="2cDkV1y1r-W87eGvVOOi-3" edge="1">
          <mxGeometry width="50" height="50" relative="1" as="geometry">
            <mxPoint x="570" y="250" as="sourcePoint" />
            <mxPoint x="620" y="200" as="targetPoint" />
          </mxGeometry>
        </mxCell>
        <mxCell id="2cDkV1y1r-W87eGvVOOi-58" value="" style="endArrow=classic;startArrow=classic;html=1;fontFamily=Verdana;fontSize=35;fontColor=#CC0000;entryX=0.079;entryY=0.982;entryDx=0;entryDy=0;entryPerimeter=0;exitX=0.5;exitY=0;exitDx=0;exitDy=0;" parent="1" source="2cDkV1y1r-W87eGvVOOi-54" target="2cDkV1y1r-W87eGvVOOi-18" edge="1">
          <mxGeometry width="50" height="50" relative="1" as="geometry">
            <mxPoint x="695" y="310" as="sourcePoint" />
            <mxPoint x="657" y="229.2800000000002" as="targetPoint" />
          </mxGeometry>
        </mxCell>
        <mxCell id="2cDkV1y1r-W87eGvVOOi-59" value="" style="endArrow=classic;startArrow=classic;html=1;fontFamily=Verdana;fontSize=35;fontColor=#CC0000;entryX=0.141;entryY=0.982;entryDx=0;entryDy=0;entryPerimeter=0;exitX=0.5;exitY=0;exitDx=0;exitDy=0;" parent="1" source="2cDkV1y1r-W87eGvVOOi-55" target="2cDkV1y1r-W87eGvVOOi-28" edge="1">
          <mxGeometry width="50" height="50" relative="1" as="geometry">
            <mxPoint x="875" y="312" as="sourcePoint" />
            <mxPoint x="811.06" y="229.2800000000002" as="targetPoint" />
          </mxGeometry>
        </mxCell>
        <mxCell id="2cDkV1y1r-W87eGvVOOi-60" value="" style="endArrow=classic;startArrow=classic;html=1;fontFamily=Verdana;fontSize=35;fontColor=#CC0000;entryX=0.045;entryY=1.041;entryDx=0;entryDy=0;entryPerimeter=0;exitX=0.5;exitY=0;exitDx=0;exitDy=0;" parent="1" source="2cDkV1y1r-W87eGvVOOi-56" target="2cDkV1y1r-W87eGvVOOi-37" edge="1">
          <mxGeometry width="50" height="50" relative="1" as="geometry">
            <mxPoint x="1019.9999999999995" y="310" as="sourcePoint" />
            <mxPoint x="993.4599999999996" y="229.2800000000002" as="targetPoint" />
          </mxGeometry>
        </mxCell>
        <mxCell id="2cDkV1y1r-W87eGvVOOi-64" value="" style="shape=table;html=1;whiteSpace=wrap;startSize=0;container=1;collapsible=0;childLayout=tableLayout;rounded=0;glass=0;fontFamily=Verdana;fontSize=35;fontColor=#CC0000;" parent="1" vertex="1">
          <mxGeometry x="730" y="450" width="360" height="240" as="geometry" />
        </mxCell>
        <mxCell id="2cDkV1y1r-W87eGvVOOi-100" style="shape=partialRectangle;html=1;whiteSpace=wrap;collapsible=0;dropTarget=0;pointerEvents=0;fillColor=none;top=0;left=0;bottom=0;right=0;points=[[0,0.5],[1,0.5]];portConstraint=eastwest;" parent="2cDkV1y1r-W87eGvVOOi-64" vertex="1">
          <mxGeometry width="360" height="40" as="geometry" />
        </mxCell>
        <mxCell id="2cDkV1y1r-W87eGvVOOi-101" style="shape=partialRectangle;html=1;whiteSpace=wrap;connectable=0;fillColor=none;top=0;left=0;bottom=0;right=0;overflow=hidden;" parent="2cDkV1y1r-W87eGvVOOi-100" vertex="1">
          <mxGeometry width="60" height="40" as="geometry" />
        </mxCell>
        <mxCell id="2cDkV1y1r-W87eGvVOOi-102" style="shape=partialRectangle;html=1;whiteSpace=wrap;connectable=0;fillColor=none;top=0;left=0;bottom=0;right=0;overflow=hidden;" parent="2cDkV1y1r-W87eGvVOOi-100" vertex="1">
          <mxGeometry x="60" width="60" height="40" as="geometry" />
        </mxCell>
        <mxCell id="2cDkV1y1r-W87eGvVOOi-103" style="shape=partialRectangle;html=1;whiteSpace=wrap;connectable=0;fillColor=none;top=0;left=0;bottom=0;right=0;overflow=hidden;" parent="2cDkV1y1r-W87eGvVOOi-100" vertex="1">
          <mxGeometry x="120" width="60" height="40" as="geometry" />
        </mxCell>
        <mxCell id="2cDkV1y1r-W87eGvVOOi-104" style="shape=partialRectangle;html=1;whiteSpace=wrap;connectable=0;fillColor=none;top=0;left=0;bottom=0;right=0;overflow=hidden;" parent="2cDkV1y1r-W87eGvVOOi-100" vertex="1">
          <mxGeometry x="180" width="60" height="40" as="geometry" />
        </mxCell>
        <mxCell id="2cDkV1y1r-W87eGvVOOi-105" style="shape=partialRectangle;html=1;whiteSpace=wrap;connectable=0;fillColor=none;top=0;left=0;bottom=0;right=0;overflow=hidden;" parent="2cDkV1y1r-W87eGvVOOi-100" vertex="1">
          <mxGeometry x="240" width="60" height="40" as="geometry" />
        </mxCell>
        <mxCell id="2cDkV1y1r-W87eGvVOOi-106" style="shape=partialRectangle;html=1;whiteSpace=wrap;connectable=0;fillColor=none;top=0;left=0;bottom=0;right=0;overflow=hidden;" parent="2cDkV1y1r-W87eGvVOOi-100" vertex="1">
          <mxGeometry x="300" width="60" height="40" as="geometry" />
        </mxCell>
        <mxCell id="2cDkV1y1r-W87eGvVOOi-93" style="shape=partialRectangle;html=1;whiteSpace=wrap;collapsible=0;dropTarget=0;pointerEvents=0;fillColor=none;top=0;left=0;bottom=0;right=0;points=[[0,0.5],[1,0.5]];portConstraint=eastwest;" parent="2cDkV1y1r-W87eGvVOOi-64" vertex="1">
          <mxGeometry y="40" width="360" height="40" as="geometry" />
        </mxCell>
        <mxCell id="2cDkV1y1r-W87eGvVOOi-94" style="shape=partialRectangle;html=1;whiteSpace=wrap;connectable=0;fillColor=none;top=0;left=0;bottom=0;right=0;overflow=hidden;" parent="2cDkV1y1r-W87eGvVOOi-93" vertex="1">
          <mxGeometry width="60" height="40" as="geometry" />
        </mxCell>
        <mxCell id="2cDkV1y1r-W87eGvVOOi-95" style="shape=partialRectangle;html=1;whiteSpace=wrap;connectable=0;fillColor=none;top=0;left=0;bottom=0;right=0;overflow=hidden;" parent="2cDkV1y1r-W87eGvVOOi-93" vertex="1">
          <mxGeometry x="60" width="60" height="40" as="geometry" />
        </mxCell>
        <mxCell id="2cDkV1y1r-W87eGvVOOi-96" style="shape=partialRectangle;html=1;whiteSpace=wrap;connectable=0;fillColor=none;top=0;left=0;bottom=0;right=0;overflow=hidden;" parent="2cDkV1y1r-W87eGvVOOi-93" vertex="1">
          <mxGeometry x="120" width="60" height="40" as="geometry" />
        </mxCell>
        <mxCell id="2cDkV1y1r-W87eGvVOOi-97" style="shape=partialRectangle;html=1;whiteSpace=wrap;connectable=0;fillColor=none;top=0;left=0;bottom=0;right=0;overflow=hidden;" parent="2cDkV1y1r-W87eGvVOOi-93" vertex="1">
          <mxGeometry x="180" width="60" height="40" as="geometry" />
        </mxCell>
        <mxCell id="2cDkV1y1r-W87eGvVOOi-98" style="shape=partialRectangle;html=1;whiteSpace=wrap;connectable=0;fillColor=none;top=0;left=0;bottom=0;right=0;overflow=hidden;" parent="2cDkV1y1r-W87eGvVOOi-93" vertex="1">
          <mxGeometry x="240" width="60" height="40" as="geometry" />
        </mxCell>
        <mxCell id="2cDkV1y1r-W87eGvVOOi-99" style="shape=partialRectangle;html=1;whiteSpace=wrap;connectable=0;fillColor=none;top=0;left=0;bottom=0;right=0;overflow=hidden;" parent="2cDkV1y1r-W87eGvVOOi-93" vertex="1">
          <mxGeometry x="300" width="60" height="40" as="geometry" />
        </mxCell>
        <mxCell id="2cDkV1y1r-W87eGvVOOi-86" style="shape=partialRectangle;html=1;whiteSpace=wrap;collapsible=0;dropTarget=0;pointerEvents=0;fillColor=none;top=0;left=0;bottom=0;right=0;points=[[0,0.5],[1,0.5]];portConstraint=eastwest;" parent="2cDkV1y1r-W87eGvVOOi-64" vertex="1">
          <mxGeometry y="80" width="360" height="40" as="geometry" />
        </mxCell>
        <mxCell id="2cDkV1y1r-W87eGvVOOi-87" style="shape=partialRectangle;html=1;whiteSpace=wrap;connectable=0;fillColor=none;top=0;left=0;bottom=0;right=0;overflow=hidden;" parent="2cDkV1y1r-W87eGvVOOi-86" vertex="1">
          <mxGeometry width="60" height="40" as="geometry" />
        </mxCell>
        <mxCell id="2cDkV1y1r-W87eGvVOOi-88" style="shape=partialRectangle;html=1;whiteSpace=wrap;connectable=0;fillColor=none;top=0;left=0;bottom=0;right=0;overflow=hidden;" parent="2cDkV1y1r-W87eGvVOOi-86" vertex="1">
          <mxGeometry x="60" width="60" height="40" as="geometry" />
        </mxCell>
        <mxCell id="2cDkV1y1r-W87eGvVOOi-89" style="shape=partialRectangle;html=1;whiteSpace=wrap;connectable=0;fillColor=none;top=0;left=0;bottom=0;right=0;overflow=hidden;" parent="2cDkV1y1r-W87eGvVOOi-86" vertex="1">
          <mxGeometry x="120" width="60" height="40" as="geometry" />
        </mxCell>
        <mxCell id="2cDkV1y1r-W87eGvVOOi-90" style="shape=partialRectangle;html=1;whiteSpace=wrap;connectable=0;fillColor=none;top=0;left=0;bottom=0;right=0;overflow=hidden;" parent="2cDkV1y1r-W87eGvVOOi-86" vertex="1">
          <mxGeometry x="180" width="60" height="40" as="geometry" />
        </mxCell>
        <mxCell id="2cDkV1y1r-W87eGvVOOi-91" style="shape=partialRectangle;html=1;whiteSpace=wrap;connectable=0;fillColor=none;top=0;left=0;bottom=0;right=0;overflow=hidden;" parent="2cDkV1y1r-W87eGvVOOi-86" vertex="1">
          <mxGeometry x="240" width="60" height="40" as="geometry" />
        </mxCell>
        <mxCell id="2cDkV1y1r-W87eGvVOOi-92" style="shape=partialRectangle;html=1;whiteSpace=wrap;connectable=0;fillColor=none;top=0;left=0;bottom=0;right=0;overflow=hidden;" parent="2cDkV1y1r-W87eGvVOOi-86" vertex="1">
          <mxGeometry x="300" width="60" height="40" as="geometry" />
        </mxCell>
        <mxCell id="2cDkV1y1r-W87eGvVOOi-65" value="" style="shape=partialRectangle;html=1;whiteSpace=wrap;collapsible=0;dropTarget=0;pointerEvents=0;fillColor=none;top=0;left=0;bottom=0;right=0;points=[[0,0.5],[1,0.5]];portConstraint=eastwest;" parent="2cDkV1y1r-W87eGvVOOi-64" vertex="1">
          <mxGeometry y="120" width="360" height="40" as="geometry" />
        </mxCell>
        <mxCell id="2cDkV1y1r-W87eGvVOOi-66" value="" style="shape=partialRectangle;html=1;whiteSpace=wrap;connectable=0;fillColor=none;top=0;left=0;bottom=0;right=0;overflow=hidden;" parent="2cDkV1y1r-W87eGvVOOi-65" vertex="1">
          <mxGeometry width="60" height="40" as="geometry" />
        </mxCell>
        <mxCell id="2cDkV1y1r-W87eGvVOOi-67" value="" style="shape=partialRectangle;html=1;whiteSpace=wrap;connectable=0;fillColor=none;top=0;left=0;bottom=0;right=0;overflow=hidden;" parent="2cDkV1y1r-W87eGvVOOi-65" vertex="1">
          <mxGeometry x="60" width="60" height="40" as="geometry" />
        </mxCell>
        <mxCell id="2cDkV1y1r-W87eGvVOOi-68" value="" style="shape=partialRectangle;html=1;whiteSpace=wrap;connectable=0;fillColor=none;top=0;left=0;bottom=0;right=0;overflow=hidden;" parent="2cDkV1y1r-W87eGvVOOi-65" vertex="1">
          <mxGeometry x="120" width="60" height="40" as="geometry" />
        </mxCell>
        <mxCell id="2cDkV1y1r-W87eGvVOOi-77" style="shape=partialRectangle;html=1;whiteSpace=wrap;connectable=0;fillColor=none;top=0;left=0;bottom=0;right=0;overflow=hidden;" parent="2cDkV1y1r-W87eGvVOOi-65" vertex="1">
          <mxGeometry x="180" width="60" height="40" as="geometry" />
        </mxCell>
        <mxCell id="2cDkV1y1r-W87eGvVOOi-80" style="shape=partialRectangle;html=1;whiteSpace=wrap;connectable=0;fillColor=none;top=0;left=0;bottom=0;right=0;overflow=hidden;" parent="2cDkV1y1r-W87eGvVOOi-65" vertex="1">
          <mxGeometry x="240" width="60" height="40" as="geometry" />
        </mxCell>
        <mxCell id="2cDkV1y1r-W87eGvVOOi-83" style="shape=partialRectangle;html=1;whiteSpace=wrap;connectable=0;fillColor=none;top=0;left=0;bottom=0;right=0;overflow=hidden;" parent="2cDkV1y1r-W87eGvVOOi-65" vertex="1">
          <mxGeometry x="300" width="60" height="40" as="geometry" />
        </mxCell>
        <mxCell id="2cDkV1y1r-W87eGvVOOi-69" value="" style="shape=partialRectangle;html=1;whiteSpace=wrap;collapsible=0;dropTarget=0;pointerEvents=0;fillColor=none;top=0;left=0;bottom=0;right=0;points=[[0,0.5],[1,0.5]];portConstraint=eastwest;" parent="2cDkV1y1r-W87eGvVOOi-64" vertex="1">
          <mxGeometry y="160" width="360" height="40" as="geometry" />
        </mxCell>
        <mxCell id="2cDkV1y1r-W87eGvVOOi-70" value="" style="shape=partialRectangle;html=1;whiteSpace=wrap;connectable=0;fillColor=none;top=0;left=0;bottom=0;right=0;overflow=hidden;" parent="2cDkV1y1r-W87eGvVOOi-69" vertex="1">
          <mxGeometry width="60" height="40" as="geometry" />
        </mxCell>
        <mxCell id="2cDkV1y1r-W87eGvVOOi-71" value="" style="shape=partialRectangle;html=1;whiteSpace=wrap;connectable=0;fillColor=none;top=0;left=0;bottom=0;right=0;overflow=hidden;" parent="2cDkV1y1r-W87eGvVOOi-69" vertex="1">
          <mxGeometry x="60" width="60" height="40" as="geometry" />
        </mxCell>
        <mxCell id="2cDkV1y1r-W87eGvVOOi-72" value="" style="shape=partialRectangle;html=1;whiteSpace=wrap;connectable=0;fillColor=none;top=0;left=0;bottom=0;right=0;overflow=hidden;" parent="2cDkV1y1r-W87eGvVOOi-69" vertex="1">
          <mxGeometry x="120" width="60" height="40" as="geometry" />
        </mxCell>
        <mxCell id="2cDkV1y1r-W87eGvVOOi-78" style="shape=partialRectangle;html=1;whiteSpace=wrap;connectable=0;fillColor=none;top=0;left=0;bottom=0;right=0;overflow=hidden;" parent="2cDkV1y1r-W87eGvVOOi-69" vertex="1">
          <mxGeometry x="180" width="60" height="40" as="geometry" />
        </mxCell>
        <mxCell id="2cDkV1y1r-W87eGvVOOi-81" style="shape=partialRectangle;html=1;whiteSpace=wrap;connectable=0;fillColor=none;top=0;left=0;bottom=0;right=0;overflow=hidden;" parent="2cDkV1y1r-W87eGvVOOi-69" vertex="1">
          <mxGeometry x="240" width="60" height="40" as="geometry" />
        </mxCell>
        <mxCell id="2cDkV1y1r-W87eGvVOOi-84" style="shape=partialRectangle;html=1;whiteSpace=wrap;connectable=0;fillColor=none;top=0;left=0;bottom=0;right=0;overflow=hidden;" parent="2cDkV1y1r-W87eGvVOOi-69" vertex="1">
          <mxGeometry x="300" width="60" height="40" as="geometry" />
        </mxCell>
        <mxCell id="2cDkV1y1r-W87eGvVOOi-73" value="" style="shape=partialRectangle;html=1;whiteSpace=wrap;collapsible=0;dropTarget=0;pointerEvents=0;fillColor=none;top=0;left=0;bottom=0;right=0;points=[[0,0.5],[1,0.5]];portConstraint=eastwest;" parent="2cDkV1y1r-W87eGvVOOi-64" vertex="1">
          <mxGeometry y="200" width="360" height="40" as="geometry" />
        </mxCell>
        <mxCell id="2cDkV1y1r-W87eGvVOOi-74" value="" style="shape=partialRectangle;html=1;whiteSpace=wrap;connectable=0;fillColor=none;top=0;left=0;bottom=0;right=0;overflow=hidden;" parent="2cDkV1y1r-W87eGvVOOi-73" vertex="1">
          <mxGeometry width="60" height="40" as="geometry" />
        </mxCell>
        <mxCell id="2cDkV1y1r-W87eGvVOOi-75" value="" style="shape=partialRectangle;html=1;whiteSpace=wrap;connectable=0;fillColor=none;top=0;left=0;bottom=0;right=0;overflow=hidden;" parent="2cDkV1y1r-W87eGvVOOi-73" vertex="1">
          <mxGeometry x="60" width="60" height="40" as="geometry" />
        </mxCell>
        <mxCell id="2cDkV1y1r-W87eGvVOOi-76" value="" style="shape=partialRectangle;html=1;whiteSpace=wrap;connectable=0;fillColor=none;top=0;left=0;bottom=0;right=0;overflow=hidden;" parent="2cDkV1y1r-W87eGvVOOi-73" vertex="1">
          <mxGeometry x="120" width="60" height="40" as="geometry" />
        </mxCell>
        <mxCell id="2cDkV1y1r-W87eGvVOOi-79" style="shape=partialRectangle;html=1;whiteSpace=wrap;connectable=0;fillColor=none;top=0;left=0;bottom=0;right=0;overflow=hidden;" parent="2cDkV1y1r-W87eGvVOOi-73" vertex="1">
          <mxGeometry x="180" width="60" height="40" as="geometry" />
        </mxCell>
        <mxCell id="2cDkV1y1r-W87eGvVOOi-82" style="shape=partialRectangle;html=1;whiteSpace=wrap;connectable=0;fillColor=none;top=0;left=0;bottom=0;right=0;overflow=hidden;" parent="2cDkV1y1r-W87eGvVOOi-73" vertex="1">
          <mxGeometry x="240" width="60" height="40" as="geometry" />
        </mxCell>
        <mxCell id="2cDkV1y1r-W87eGvVOOi-85" style="shape=partialRectangle;html=1;whiteSpace=wrap;connectable=0;fillColor=none;top=0;left=0;bottom=0;right=0;overflow=hidden;" parent="2cDkV1y1r-W87eGvVOOi-73" vertex="1">
          <mxGeometry x="300" width="60" height="40" as="geometry" />
        </mxCell>
        <mxCell id="2cDkV1y1r-W87eGvVOOi-150" value="" style="endArrow=classic;startArrow=classic;html=1;fontFamily=Verdana;fontSize=35;fontColor=#CC0000;entryX=0.134;entryY=1.015;entryDx=0;entryDy=0;entryPerimeter=0;horizontal=1;" parent="1" target="2cDkV1y1r-W87eGvVOOi-52" edge="1">
          <mxGeometry width="50" height="50" relative="1" as="geometry">
            <mxPoint x="760" y="470" as="sourcePoint" />
            <mxPoint x="750" y="410" as="targetPoint" />
          </mxGeometry>
        </mxCell>
        <mxCell id="2cDkV1y1r-W87eGvVOOi-152" value="" style="endArrow=classic;startArrow=classic;html=1;fontFamily=Verdana;fontSize=35;fontColor=#CC0000;entryX=0.134;entryY=1.015;entryDx=0;entryDy=0;entryPerimeter=0;horizontal=1;" parent="1" edge="1">
          <mxGeometry width="50" height="50" relative="1" as="geometry">
            <mxPoint x="820.18" y="468.35" as="sourcePoint" />
            <mxPoint x="747.9999999999997" y="380.0000000000001" as="targetPoint" />
          </mxGeometry>
        </mxCell>
        <mxCell id="2cDkV1y1r-W87eGvVOOi-153" value="" style="endArrow=classic;startArrow=classic;html=1;fontFamily=Verdana;fontSize=35;fontColor=#CC0000;entryX=0.134;entryY=1.015;entryDx=0;entryDy=0;entryPerimeter=0;horizontal=1;" parent="1" edge="1">
          <mxGeometry width="50" height="50" relative="1" as="geometry">
            <mxPoint x="882.1799999999998" y="468.35000000000014" as="sourcePoint" />
            <mxPoint x="809.9999999999995" y="380" as="targetPoint" />
          </mxGeometry>
        </mxCell>
        <mxCell id="2cDkV1y1r-W87eGvVOOi-154" value="&lt;font color=&quot;#000000&quot;&gt;...&lt;/font&gt;" style="text;strokeColor=none;fillColor=none;html=1;fontSize=24;fontStyle=1;verticalAlign=middle;align=center;rounded=0;glass=0;fontFamily=Verdana;fontColor=#CC0000;" parent="1" vertex="1">
          <mxGeometry x="895" y="390" width="100" height="40" as="geometry" />
        </mxCell>
        <mxCell id="2cDkV1y1r-W87eGvVOOi-155" value="Shaders" style="text;html=1;strokeColor=none;fillColor=none;align=center;verticalAlign=middle;whiteSpace=wrap;rounded=0;fontSize=35;fontFamily=Verdana;fontColor=#CC0000;" parent="1" vertex="1">
          <mxGeometry x="365" y="490" width="40" height="20" as="geometry" />
        </mxCell>
        <mxCell id="2cDkV1y1r-W87eGvVOOi-156" value="" style="endArrow=classic;html=1;fontFamily=Verdana;fontSize=35;fontColor=#CC0000;" parent="1" edge="1">
          <mxGeometry width="50" height="50" relative="1" as="geometry">
            <mxPoint x="1116" y="730" as="sourcePoint" />
            <mxPoint x="1116" y="440" as="targetPoint" />
          </mxGeometry>
        </mxCell>
        <mxCell id="2cDkV1y1r-W87eGvVOOi-157" value="" style="endArrow=classic;html=1;fontFamily=Verdana;fontSize=35;fontColor=#CC0000;" parent="1" edge="1">
          <mxGeometry width="50" height="50" relative="1" as="geometry">
            <mxPoint x="1116" y="730" as="sourcePoint" />
            <mxPoint x="686" y="730" as="targetPoint" />
          </mxGeometry>
        </mxCell>
        <mxCell id="2cDkV1y1r-W87eGvVOOi-158" value="" style="endArrow=classic;html=1;fontFamily=Verdana;fontSize=35;fontColor=#CC0000;" parent="1" edge="1">
          <mxGeometry width="50" height="50" relative="1" as="geometry">
            <mxPoint x="1116" y="730" as="sourcePoint" />
            <mxPoint x="1146" y="690" as="targetPoint" />
          </mxGeometry>
        </mxCell>
        <mxCell id="2cDkV1y1r-W87eGvVOOi-160" value="&lt;font color=&quot;#000000&quot; style=&quot;font-size: 25px&quot;&gt;x&lt;/font&gt;" style="text;html=1;strokeColor=none;fillColor=none;align=center;verticalAlign=middle;whiteSpace=wrap;rounded=0;glass=0;fontFamily=Verdana;fontSize=35;fontColor=#CC0000;" parent="1" vertex="1">
          <mxGeometry x="640" y="740" width="40" height="20" as="geometry" />
        </mxCell>
        <mxCell id="2cDkV1y1r-W87eGvVOOi-161" value="&lt;font color=&quot;#000000&quot; style=&quot;font-size: 25px&quot;&gt;y&lt;/font&gt;" style="text;html=1;strokeColor=none;fillColor=none;align=center;verticalAlign=middle;whiteSpace=wrap;rounded=0;glass=0;fontFamily=Verdana;fontSize=35;fontColor=#CC0000;" parent="1" vertex="1">
          <mxGeometry x="1115" y="420" width="40" height="20" as="geometry" />
        </mxCell>
        <mxCell id="2cDkV1y1r-W87eGvVOOi-162" value="&lt;font color=&quot;#000000&quot; style=&quot;font-size: 25px&quot;&gt;z&lt;/font&gt;" style="text;html=1;strokeColor=none;fillColor=none;align=center;verticalAlign=middle;whiteSpace=wrap;rounded=0;glass=0;fontFamily=Verdana;fontSize=35;fontColor=#CC0000;" parent="1" vertex="1">
          <mxGeometry x="1146" y="690" width="40" height="20" as="geometry" />
        </mxCell>
      </root>
    </mxGraphModel>
  </diagram>
</mxfile>
